<svg width="16" height="16" viewBox="0 0 16 16" fill="none" xmlns="http://www.w3.org/2000/svg">
<circle cx="8" cy="8" r="8" fill="#182849"/>
<path d="M3.61909 6.14912H12.0111C12.0897 6.1568 12.169 6.14769 12.2438 6.12239C12.3186 6.09709 12.3871 6.05618 12.4449 6.00238C12.5027 5.94857 12.5483 5.8831 12.5789 5.8103C12.6094 5.7375 12.6242 5.65904 12.6221 5.58012C12.6243 5.50076 12.6098 5.42182 12.5794 5.34846C12.5491 5.2751 12.5036 5.20898 12.4459 5.15442C12.3882 5.09986 12.3197 5.05809 12.2448 5.03184C12.1698 5.0056 12.0902 4.99547 12.0111 5.00212H3.61909C3.53954 4.99524 3.45944 5.00515 3.38397 5.03121C3.3085 5.05727 3.23934 5.0989 3.18098 5.15339C3.12263 5.20788 3.07637 5.27403 3.0452 5.34754C3.01404 5.42105 2.99867 5.50029 3.00009 5.58012C2.99901 5.65947 3.01468 5.73815 3.04609 5.81103C3.0775 5.8839 3.12393 5.94933 3.18235 6.00304C3.24078 6.05674 3.30987 6.09751 3.38513 6.12268C3.46039 6.14786 3.54011 6.15686 3.61909 6.14912ZM4.74909 8.72412H10.8801C10.9591 8.73186 11.0388 8.72286 11.114 8.69768C11.1893 8.67251 11.2584 8.63174 11.3168 8.57804C11.3753 8.52433 11.4217 8.4589 11.4531 8.38603C11.4845 8.31315 11.5002 8.23447 11.4991 8.15512C11.5002 8.07577 11.4845 7.99709 11.4531 7.92421C11.4217 7.85133 11.3753 7.7859 11.3168 7.7322C11.2584 7.67849 11.1893 7.63772 11.114 7.61255C11.0388 7.58738 10.9591 7.57837 10.8801 7.58612H4.74909C4.67011 7.57837 4.59039 7.58738 4.51513 7.61255C4.43987 7.63772 4.37077 7.67849 4.31235 7.7322C4.25393 7.7859 4.2075 7.85133 4.17609 7.92421C4.14468 7.99709 4.12901 8.07577 4.13009 8.15512C4.12901 8.23447 4.14468 8.31315 4.17609 8.38603C4.2075 8.4589 4.25393 8.52433 4.31235 8.57804C4.37077 8.63174 4.43987 8.67251 4.51513 8.69768C4.59039 8.72286 4.67011 8.73186 4.74909 8.72412ZM5.92109 11.3061H9.70909C9.78737 11.3124 9.86609 11.3023 9.94025 11.2764C10.0144 11.2506 10.0824 11.2096 10.1398 11.1561C10.1973 11.1026 10.243 11.0377 10.274 10.9656C10.3051 10.8934 10.3208 10.8156 10.3201 10.7371C10.3217 10.6579 10.3068 10.5793 10.2762 10.5062C10.2456 10.4331 10.2001 10.3673 10.1425 10.3129C10.085 10.2584 10.0167 10.2166 9.94207 10.1902C9.86743 10.1637 9.78807 10.1531 9.70909 10.1591H5.92109C5.84211 10.1531 5.76275 10.1637 5.68811 10.1902C5.61346 10.2166 5.54517 10.2584 5.48763 10.3129C5.43009 10.3673 5.38457 10.4331 5.354 10.5062C5.32342 10.5793 5.30847 10.6579 5.31009 10.7371C5.30942 10.8156 5.32511 10.8934 5.35614 10.9656C5.38717 11.0377 5.43287 11.1026 5.49034 11.1561C5.5478 11.2096 5.61578 11.2506 5.68993 11.2764C5.76409 11.3023 5.84281 11.3124 5.92109 11.3061Z" fill="white"/>
</svg>
