<svg xmlns="http://www.w3.org/2000/svg" width="324" height="485" viewBox="0 0 324 485"><defs><style>.a{fill:#af8e9a;}.b{fill:#fff;}</style></defs><g transform="translate(-818 -944)"><path class="a" d="M5,0H319a5,5,0,0,1,5,5V480a5,5,0,0,1-5,5H5a5,5,0,0,1-5-5V5A5,5,0,0,1,5,0Z" transform="translate(818 944)"/><path class="b" d="M104.5,69.866V13.409A9.437,9.437,0,0,0,95.094,4H10.409A9.437,9.437,0,0,0,1,13.409V69.866a9.437,9.437,0,0,0,9.409,9.409H95.094A9.437,9.437,0,0,0,104.5,69.866ZM36.285,43.99,48.047,58.151,64.513,36.933,85.684,65.161H19.819Z" transform="translate(927.248 1147)"/></g></svg>