<svg xmlns="http://www.w3.org/2000/svg" width="16" height="16" viewBox="0 0 16 16"><path d="M9.4,2.391a8.054,8.054,0,0,0,8-8,8.066,8.066,0,0,0-8.008-8,8.058,8.058,0,0,0-7.992,8A8.059,8.059,0,0,0,9.4,2.391Zm0-1.333A6.634,6.634,0,0,1,2.74-5.609a6.633,6.633,0,0,1,6.651-6.667,6.658,6.658,0,0,1,6.675,6.667A6.636,6.636,0,0,1,9.4,1.057ZM9.328-8.4a1.013,1.013,0,0,0,1.02-1.02,1.014,1.014,0,0,0-1.02-1.027,1.019,1.019,0,0,0-1.02,1.027A1.018,1.018,0,0,0,9.328-8.4ZM8.026-1.3h3.192a.547.547,0,0,0,.573-.549.556.556,0,0,0-.573-.549h-.973V-6.386c0-.424-.212-.706-.612-.706H8.159a.556.556,0,0,0-.573.549.547.547,0,0,0,.573.549H9v3.6H8.026a.556.556,0,0,0-.573.549A.547.547,0,0,0,8.026-1.3Z" transform="translate(-1.398 13.609)"/></svg>