<svg xmlns="http://www.w3.org/2000/svg" width="324" height="183" viewBox="0 0 324 183"><defs><style>.a{fill:#af8e9a;}.b{fill:#935870;}.c{fill:#fff;}.d{fill:#bdc3d8;}.e{fill:#21365f;}</style></defs><g transform="translate(102 40)"><g transform="translate(-86 -40)"><path class="a" d="M5,0H319a5,5,0,0,1,5,5V183a0,0,0,0,1,0,0H0a0,0,0,0,1,0,0V5A5,5,0,0,1,5,0Z" transform="translate(-16)"/></g><circle class="b" cx="20.728" cy="20.728" r="20.728" transform="translate(0 45.6)"/><circle class="b" cx="17.767" cy="17.767" r="17.767" transform="translate(41.938 0)"/><circle class="b" cx="29.611" cy="29.611" r="29.611" transform="translate(58.596 40.961)"/><g transform="translate(11.216 5.997)"><path class="c" d="M334.076,131.952h0V158.6a23.688,23.688,0,0,0,23.689,23.688h0v-26.65A23.69,23.69,0,0,0,334.076,131.952Z" transform="translate(-309.28 -123.439)"/><path class="d" d="M357.765,155.641a23.69,23.69,0,0,0-23.689-23.689s11.844,37.781,23.689,50.339Z" transform="translate(-309.28 -123.439)"/><path class="e" d="M356.721,182.359a24.827,24.827,0,0,1-24.8-24.8V130.91a1.111,1.111,0,0,1,1.111-1.111,24.827,24.827,0,0,1,24.8,24.8v26.65A1.111,1.111,0,0,1,356.721,182.359Zm-22.577-50.311V157.56a22.607,22.607,0,0,0,21.467,22.552V154.6A22.607,22.607,0,0,0,334.144,132.047Z" transform="translate(-308.238 -122.396)"/><path class="e" d="M362.079,197.52a1.108,1.108,0,0,1-.808-.349c-6.875-7.288-13.7-22.813-18.212-34.551a1.111,1.111,0,0,1,2.073-.8c4.441,11.554,11.128,26.8,17.754,33.826a1.111,1.111,0,0,1-.807,1.872Z" transform="translate(-313.594 -137.558)"/><path class="c" d="M380.825,175.012h29.61a26.65,26.65,0,0,1-26.649,26.65H354.175A26.65,26.65,0,0,1,380.825,175.012Z" transform="translate(-319.012 -144.289)"/><path class="d" d="M354.175,201.662h29.611a26.65,26.65,0,0,0,26.649-26.65s-32.576,22.049-56.26,26.65Z" transform="translate(-319.012 -144.289)"/><path class="e" d="M382.743,201.73h-29.61a1.11,1.11,0,0,1-1.11-1.11,27.791,27.791,0,0,1,27.759-27.761h29.611a1.111,1.111,0,0,1,1.11,1.11A27.792,27.792,0,0,1,382.743,201.73Zm-28.476-2.22h28.476a25.572,25.572,0,0,0,25.516-24.429H379.782A25.571,25.571,0,0,0,354.267,199.509Z" transform="translate(-317.97 -143.247)"/><path class="e" d="M353.129,208.47a1.11,1.11,0,0,1-.21-2.2c14.4-2.8,32.1-12.059,44.418-19.335a1.11,1.11,0,1,1,1.129,1.912c-12.468,7.366-30.417,16.747-45.124,19.6A1.2,1.2,0,0,1,353.129,208.47Z" transform="translate(-317.969 -149.988)"/><path class="c" d="M400.917,117.6h0v29.611a26.65,26.65,0,0,1-26.65,26.65h0V144.25A26.65,26.65,0,0,1,400.917,117.6Z" transform="translate(-328.741 -116.49)"/><path class="d" d="M400.917,117.6s-9.417,41.851-26.65,56.261h0a26.65,26.65,0,0,0,26.65-26.65V117.6Z" transform="translate(-328.741 -116.49)"/><path class="e" d="M373.225,173.928a1.111,1.111,0,0,1-1.111-1.11V143.207a27.792,27.792,0,0,1,27.761-27.76,1.11,1.11,0,0,1,1.11,1.111v29.611A27.791,27.791,0,0,1,373.225,173.928Zm25.54-56.238a25.573,25.573,0,0,0-24.429,25.516v28.477a25.573,25.573,0,0,0,24.429-25.516Z" transform="translate(-327.699 -115.447)"/><path class="e" d="M373.225,190.61a1.11,1.11,0,0,1-.713-1.962c9.653-8.071,16.852-25.116,21.192-38a1.111,1.111,0,1,1,2.1.712c-4.431,13.148-11.822,30.585-21.872,38.987A1.1,1.1,0,0,1,373.225,190.61Z" transform="translate(-327.699 -132.129)"/><path class="c" d="M329.331,180.753H296.76a23.689,23.689,0,0,0,23.689,23.689H353.02A23.688,23.688,0,0,0,329.331,180.753Z" transform="translate(-291.211 -147.069)"/><path class="d" d="M329.331,180.753H296.76s35.841,20.568,56.26,23.689A23.688,23.688,0,0,0,329.331,180.753Z" transform="translate(-291.211 -147.069)"/><path class="e" d="M351.977,204.509H319.4a24.828,24.828,0,0,1-24.8-24.8,1.111,1.111,0,0,1,1.111-1.11h32.572a24.828,24.828,0,0,1,24.8,24.8A1.11,1.11,0,0,1,351.977,204.509Zm-55.124-23.688A22.608,22.608,0,0,0,319.4,202.289H350.84a22.608,22.608,0,0,0-22.552-21.468Z" transform="translate(-290.168 -146.027)"/><path class="e" d="M363.784,210.849a1.119,1.119,0,0,1-.169-.013c-12.632-1.93-30.912-10.333-44.023-17.044a1.11,1.11,0,1,1,1.012-1.976c12.964,6.635,31.008,14.94,43.347,16.825a1.11,1.11,0,0,1-.167,2.208Z" transform="translate(-301.974 -152.367)"/><path class="c" d="M0,0H94.755a0,0,0,0,1,0,0V0A26.648,26.648,0,0,1,68.107,26.648H26.648A26.648,26.648,0,0,1,0,0V0A0,0,0,0,1,0,0Z" transform="translate(1.11 61.814)"/><path class="c" d="M2.87,0H91.884a2.87,2.87,0,0,1,2.87,2.87V8.883a0,0,0,0,1,0,0H0a0,0,0,0,1,0,0V2.87A2.87,2.87,0,0,1,2.87,0Z" transform="translate(1.11 52.931)"/><path class="c" d="M0,0H47.377a0,0,0,0,1,0,0V1.662A5.741,5.741,0,0,1,41.636,7.4H5.741A5.741,5.741,0,0,1,0,1.662V0A0,0,0,0,1,0,0Z" transform="translate(24.799 88.463)"/><path class="d" d="M409.438,238.252a23.688,23.688,0,0,1-23.689,23.689h20.728a23.688,23.688,0,0,0,23.689-23.689v-2.96H409.438Z" transform="translate(-334.301 -173.478)"/><path class="d" d="M442.584,218.069h-23.69v4.442a4.441,4.441,0,0,1-4.442,4.441h29.613v-7.4A1.481,1.481,0,0,0,442.584,218.069Z" transform="translate(-348.199 -165.138)"/><path class="d" d="M401.672,289.918a4.441,4.441,0,0,1-4.441,4.442h11.845a2.96,2.96,0,0,0,2.961-2.961v-4.442H401.672Z" transform="translate(-339.861 -198.495)"/><path class="e" d="M358.178,262.008H310.8a24.827,24.827,0,0,1-24.8-24.8v-2.96a1.11,1.11,0,0,1,1.11-1.11h94.755a1.11,1.11,0,0,1,1.11,1.11v2.96A24.827,24.827,0,0,1,358.178,262.008ZM288.222,235.36v1.849A22.6,22.6,0,0,0,310.8,259.788h47.378a22.6,22.6,0,0,0,22.578-22.578V235.36Z" transform="translate(-286.002 -172.435)"/><path class="e" d="M381.867,227.02H287.113a1.111,1.111,0,0,1-1.11-1.11v-7.4a2.594,2.594,0,0,1,2.591-2.591h91.794a2.594,2.594,0,0,1,2.591,2.591v7.4A1.111,1.111,0,0,1,381.867,227.02ZM288.222,224.8h92.534v-6.292a.371.371,0,0,0-.37-.37H288.593a.371.371,0,0,0-.37.37Z" transform="translate(-286.002 -164.096)"/><path class="e" d="M377.456,294.428H336a4.075,4.075,0,0,1-4.072-4.072v-4.442a1.11,1.11,0,0,1,1.111-1.11h47.377a1.111,1.111,0,0,1,1.11,1.11v4.442A4.075,4.075,0,0,1,377.456,294.428Zm-43.306-7.4v3.331A1.852,1.852,0,0,0,336,292.208h41.455a1.852,1.852,0,0,0,1.851-1.851v-3.331Z" transform="translate(-308.241 -197.453)"/><circle class="c" cx="2.961" cy="2.961" r="2.961" transform="translate(11.475 9.994)"/><path class="e" d="M310.168,140.813a4.071,4.071,0,1,1,4.072-4.071A4.075,4.075,0,0,1,310.168,140.813Zm0-5.922a1.851,1.851,0,1,0,1.851,1.851A1.852,1.852,0,0,0,310.168,134.891Z" transform="translate(-295.732 -123.787)"/><circle class="c" cx="2.961" cy="2.961" r="2.961" transform="translate(39.608 1.11)"/><path class="e" d="M364.713,123.59a4.072,4.072,0,1,1,4.071-4.072A4.077,4.077,0,0,1,364.713,123.59Zm0-5.922a1.851,1.851,0,1,0,1.851,1.851A1.852,1.852,0,0,0,364.713,117.668Z" transform="translate(-322.143 -115.447)"/><circle class="c" cx="2.961" cy="2.961" r="2.961" transform="translate(1.11 21.84)"/><path class="e" d="M290.074,163.779a4.072,4.072,0,1,1,4.071-4.072A4.075,4.075,0,0,1,290.074,163.779Zm0-5.922a1.851,1.851,0,1,0,1.851,1.851A1.852,1.852,0,0,0,290.074,157.857Z" transform="translate(-286.002 -134.907)"/><circle class="c" cx="2.961" cy="2.961" r="2.961" transform="translate(89.943 15.917)"/><path class="e" d="M462.3,152.3a4.071,4.071,0,1,1,4.071-4.072A4.075,4.075,0,0,1,462.3,152.3Zm0-5.922a1.851,1.851,0,1,0,1.851,1.851A1.852,1.852,0,0,0,462.3,146.375Z" transform="translate(-369.397 -129.348)"/><circle class="c" cx="2.961" cy="2.961" r="2.961" transform="translate(81.059 4.071)"/><path class="e" d="M445.077,129.331a4.072,4.072,0,1,1,4.072-4.072A4.076,4.076,0,0,1,445.077,129.331Zm0-5.922a1.851,1.851,0,1,0,1.851,1.851A1.852,1.852,0,0,0,445.077,123.409Z" transform="translate(-361.057 -118.227)"/><path class="e" d="M331.7,246.842H311.293a1.11,1.11,0,0,1,0-2.221H331.7a1.11,1.11,0,0,1,0,2.221Z" transform="translate(-297.711 -177.995)"/><path class="e" d="M365.624,246.842h-3.278a1.11,1.11,0,1,1,0-2.221h3.278a1.11,1.11,0,0,1,0,2.221Z" transform="translate(-322.431 -177.995)"/></g></g></svg>