<svg xmlns="http://www.w3.org/2000/svg" width="324" height="183" viewBox="0 0 324 183"><defs><style>.a{fill:#af8e9a;}.b{fill:#935870;}.c{fill:#bdc3d8;}.d{fill:#fff;}.e{fill:#21365f;}</style></defs><g transform="translate(-416.218 -62)"><path class="a" d="M5,0H319a5,5,0,0,1,5,5V183a0,0,0,0,1,0,0H0a0,0,0,0,1,0,0V5A5,5,0,0,1,5,0Z" transform="translate(416.218 62)"/><circle class="b" cx="18.683" cy="18.683" r="18.683" transform="translate(594.852 102)"/><circle class="b" cx="16.014" cy="16.014" r="16.014" transform="translate(599.188 172.731)"/><circle class="b" cx="26.69" cy="26.69" r="26.69" transform="translate(522.218 154.201)"/><g transform="translate(541.74 110.253)"><rect class="c" width="64.055" height="85.412" rx="8.611" transform="translate(1.001 1.001)"/><path class="d" d="M8.611,0H53.379a0,0,0,0,1,0,0V67.453a8.611,8.611,0,0,1-8.611,8.611H0a0,0,0,0,1,0,0V8.611A8.611,8.611,0,0,1,8.611,0Z" transform="translate(1.001 1.005)"/><rect class="c" width="64.054" height="9.341" rx="2.87" transform="translate(22.356 55.051)"/><path class="d" d="M2.335,0h35.03a0,0,0,0,1,0,0V0a4.671,4.671,0,0,1-4.671,4.671H0a0,0,0,0,1,0,0V2.335A2.335,2.335,0,0,1,2.335,0Z" transform="translate(22.356 55.051)"/><path class="e" d="M662.357,247.358H600.972a2.338,2.338,0,0,1-2.335-2.335V238.35a2.338,2.338,0,0,1,2.335-2.335h61.384a2.338,2.338,0,0,1,2.336,2.335v6.673A2.338,2.338,0,0,1,662.357,247.358Zm-61.384-9.341a.333.333,0,0,0-.334.333v6.673a.333.333,0,0,0,.334.333h61.384a.334.334,0,0,0,.334-.333V238.35a.334.334,0,0,0-.334-.333Z" transform="translate(-577.281 -181.965)"/><rect class="c" width="7.34" height="26.69" transform="translate(72.399 46.377)"/><rect class="c" width="7.34" height="37.365" transform="translate(65.06 41.039)"/><rect class="c" width="7.34" height="26.69" transform="translate(29.026 46.377)"/><rect class="c" width="7.338" height="37.365" transform="translate(36.367 41.039)"/><path class="d" d="M0,0H3.67a0,0,0,0,1,0,0V18.481A2.87,2.87,0,0,1,.8,21.352H0a0,0,0,0,1,0,0V0A0,0,0,0,1,0,0Z" transform="translate(72.399 46.377)"/><path class="d" d="M0,0H3.67a0,0,0,0,1,0,0V26.488A2.87,2.87,0,0,1,.8,29.359H0a0,0,0,0,1,0,0V0A0,0,0,0,1,0,0Z" transform="translate(65.06 41.043)"/><path class="d" d="M0,0H3.67a0,0,0,0,1,0,0V18.481A2.87,2.87,0,0,1,.8,21.352H0a0,0,0,0,1,0,0V0A0,0,0,0,1,0,0Z" transform="translate(29.026 46.377)"/><path class="d" d="M0,0H3.67a0,0,0,0,1,0,0V26.492A2.87,2.87,0,0,1,.8,29.362H0a0,0,0,0,1,0,0V0A0,0,0,0,1,0,0Z" transform="translate(36.367 41.039)"/><path class="e" d="M714.622,246.048h-7.339a1,1,0,0,1-1-1V218.358a1,1,0,0,1,1-1h7.339a1,1,0,0,1,1,1v26.689A1,1,0,0,1,714.622,246.048Zm-6.338-2h5.338V219.359h-5.338Z" transform="translate(-634.882 -171.981)"/><path class="e" d="M698.833,245.242H691.5a1,1,0,0,1-1-1V206.876a1,1,0,0,1,1-1h7.338a1,1,0,0,1,1,1v37.365A1,1,0,0,1,698.833,245.242Zm-6.338-2h5.337V207.877H692.5Z" transform="translate(-626.434 -165.837)"/><path class="e" d="M621.326,246.048h-7.339a1,1,0,0,1-1-1V218.358a1,1,0,0,1,1-1h7.339a1,1,0,0,1,1,1v26.689A1,1,0,0,1,621.326,246.048Zm-6.338-2h5.338V219.359h-5.338Z" transform="translate(-584.96 -171.981)"/><path class="e" d="M637.114,245.242h-7.34a1,1,0,0,1-1-1V206.876a1,1,0,0,1,1-1h7.34a1,1,0,0,1,1,1v37.365A1,1,0,0,1,637.114,245.242Zm-6.339-2h5.338V207.877h-5.338Z" transform="translate(-593.408 -165.837)"/><path class="e" d="M613.754,207.17H557.705a5.01,5.01,0,0,1-5-5v-77.4a5.011,5.011,0,0,1,5-5h56.048a5.011,5.011,0,0,1,5,5v77.4A5.01,5.01,0,0,1,613.754,207.17Zm-56.048-85.407a3.007,3.007,0,0,0-3,3v77.4a3.006,3.006,0,0,0,3,3h56.048a3.007,3.007,0,0,0,3-3v-77.4a3.007,3.007,0,0,0-3-3Z" transform="translate(-552.701 -119.757)"/><path class="c" d="M0,0H32.028a0,0,0,0,1,0,0V2.064a8.611,8.611,0,0,1-8.611,8.611H8.611A8.611,8.611,0,0,1,0,2.064V0A0,0,0,0,1,0,0Z" transform="translate(17.014 1.001)"/><path class="d" d="M0,0H25.354a0,0,0,0,1,0,0V0a5.338,5.338,0,0,1-5.338,5.338H0a0,0,0,0,1,0,0V0A0,0,0,0,1,0,0Z" transform="translate(17.014 1.001)"/><path class="e" d="M616.171,132.43h-24.02a5.01,5.01,0,0,1-5-5v-6.672a1,1,0,0,1,1-1h32.027a1,1,0,0,1,1,1v6.672A5.01,5.01,0,0,1,616.171,132.43Zm-27.023-10.676v5.672a3.006,3.006,0,0,0,3,3h24.02a3.007,3.007,0,0,0,3-3v-5.672Z" transform="translate(-571.133 -119.753)"/><path class="e" d="M658.145,164.823H644.133a1,1,0,0,1,0-2h14.012a1,1,0,1,1,0,2Z" transform="translate(-601.091 -142.799)"/><path class="e" d="M614.983,164.823H599.634a1,1,0,0,1,0-2h15.348a1,1,0,0,1,0,2Z" transform="translate(-577.28 -142.799)"/><path class="e" d="M636.146,176.3H625.469a1,1,0,1,1,0-2h10.677a1,1,0,1,1,0,2Z" transform="translate(-591.104 -148.943)"/><path class="e" d="M599.634,176.3a1,1,0,0,1,0-2h6.673a1,1,0,1,1,0,2Z" transform="translate(-577.28 -148.943)"/><path class="e" d="M655.938,196.4H641.256a1,1,0,1,1,0-2h14.682a1,1,0,1,1,0,2Z" transform="translate(-599.551 -159.696)"/><path class="e" d="M613.647,196.4H599.634a1,1,0,0,1,0-2h14.012a1,1,0,1,1,0,2Z" transform="translate(-577.28 -159.696)"/><path class="e" d="M608.309,207.883h-8.675a1,1,0,0,1,0-2h8.675a1,1,0,0,1,0,2Z" transform="translate(-577.28 -165.84)"/><path class="e" d="M725.532,293.988h-5.338a1,1,0,1,1,0-2h5.338a1,1,0,0,1,0,2Z" transform="translate(-641.791 -211.915)"/><path class="e" d="M725.935,293.585a1,1,0,0,1-1-1v-5.338a1,1,0,1,1,2,0v5.338A1,1,0,0,1,725.935,293.585Z" transform="translate(-644.863 -208.843)"/><path class="d" d="M577.214,166.107a4,4,0,1,1-4-4A4,4,0,0,1,577.214,166.107Z" transform="translate(-561.533 -142.415)"/><path class="d" d="M577.214,197.683a4,4,0,1,1-4-4.005A4,4,0,0,1,577.214,197.683Z" transform="translate(-561.533 -159.31)"/><path class="c" d="M574.95,171.848a3.983,3.983,0,0,0,.186,1.147,3.943,3.943,0,0,0,1.148.187,4,4,0,0,0,4-4,3.931,3.931,0,0,0-.188-1.147,3.933,3.933,0,0,0-1.147-.188A4,4,0,0,0,574.95,171.848Z" transform="translate(-564.606 -145.487)"/><path class="c" d="M580.288,200.757a3.948,3.948,0,0,0-.188-1.148,3.952,3.952,0,0,0-4.964,4.965,3.948,3.948,0,0,0,5.152-3.817Z" transform="translate(-564.606 -162.384)"/><path class="e" d="M572.06,169.959a5,5,0,1,1,5-5A5.01,5.01,0,0,1,572.06,169.959Zm0-8.007a3,3,0,1,0,3,3A3.007,3.007,0,0,0,572.06,161.952Z" transform="translate(-560.382 -141.262)"/><path class="e" d="M572.06,201.537a5,5,0,1,1,5-5A5.011,5.011,0,0,1,572.06,201.537Zm0-8.007a3,3,0,1,0,3,3A3.006,3.006,0,0,0,572.06,193.53Z" transform="translate(-560.382 -158.16)"/><path class="d" d="M577.214,229.262a4,4,0,1,1-4-4A4,4,0,0,1,577.214,229.262Z" transform="translate(-561.533 -176.209)"/><path class="d" d="M577.214,260.84a4,4,0,1,1-4-4A4.005,4.005,0,0,1,577.214,260.84Z" transform="translate(-561.533 -193.107)"/><path class="c" d="M574.95,235a4,4,0,0,0,.186,1.148,3.943,3.943,0,0,0,1.148.186,4,4,0,0,0,4-4,3.931,3.931,0,0,0-.188-1.146,3.934,3.934,0,0,0-1.147-.188A4,4,0,0,0,574.95,235Z" transform="translate(-564.606 -179.281)"/><path class="c" d="M580.288,263.912a1,1,0,0,0-1.335-1.334,3.357,3.357,0,1,0-2.669,5.339A4.005,4.005,0,0,0,580.288,263.912Z" transform="translate(-564.606 -196.179)"/><path class="e" d="M572.06,233.115a5,5,0,1,1,5-5A5.01,5.01,0,0,1,572.06,233.115Zm0-8.007a3,3,0,1,0,3,3A3.006,3.006,0,0,0,572.06,225.108Z" transform="translate(-560.382 -175.057)"/><path class="e" d="M572.06,264.693a5.006,5.006,0,1,1,5-5.006A5.011,5.011,0,0,1,572.06,264.693Zm0-8.01a3,3,0,1,0,3,3A3.008,3.008,0,0,0,572.06,256.683Z" transform="translate(-560.382 -191.953)"/><path class="e" d="M731.273,204.286h-5.338a1,1,0,0,1,0-2h5.338a1,1,0,0,1,0,2Z" transform="translate(-644.863 -163.915)"/><path class="e" d="M731.676,203.883a1,1,0,0,1-1-1v-5.338a1,1,0,0,1,2,0v5.338A1,1,0,0,1,731.676,203.883Z" transform="translate(-647.935 -160.843)"/><circle class="e" cx="1.001" cy="1.001" r="1.001" transform="translate(82.74 30.362)"/><circle class="e" cx="1.001" cy="1.001" r="1.001" transform="translate(82.74 26.358)"/><circle class="e" cx="1.001" cy="1.001" r="1.001" transform="translate(82.74 19.686)"/><circle class="e" cx="1.001" cy="1.001" r="1.001" transform="translate(82.74 11.678)"/><path class="e" d="M711.18,127.5h-5.338a1,1,0,1,1,0-2h5.338a1,1,0,1,1,0,2Z" transform="translate(-634.111 -122.825)"/><path class="e" d="M711.583,127.092a1,1,0,0,1-1-1v-5.338a1,1,0,1,1,2,0v5.338A1,1,0,0,1,711.583,127.092Z" transform="translate(-637.183 -119.753)"/><circle class="e" cx="1.001" cy="1.001" r="1.001" transform="translate(73.398 10.676)"/><circle class="e" cx="1.001" cy="1.001" r="1.001" transform="translate(73.398 14.68)"/><circle class="e" cx="1.001" cy="1.001" r="1.001" transform="translate(73.398 21.354)"/><circle class="e" cx="1.001" cy="1.001" r="1.001" transform="translate(73.398 29.361)"/></g></g></svg>